{"title":"Natalie.2D.2010.DVDRip.x264.AC3-BAUM","uid":6124164,"size":1461493966,"categoryP":"video","categoryS":"movies","magnet":"?xt=urn:btih:dbce56cc18f32aa433145af61cf9a9291f15e954&amp;dn=Natalie.2D.2010.DVDRip.x264.AC3-BAUM&amp;tr=udp%3A%2F%2Ftracker.openbittorrent.com%3A80&amp;tr=udp%3A%2F%2Fopen.demonii.com%3A1337&amp;tr=udp%3A%2F%2Ftracker.coppersurfer.tk%3A6969&amp;tr=udp%3A%2F%2Fexodus.desync.com%3A6969","seeders":0,"leechers":1,"uploader":null,"files":-1,"time":1295827850,"description":"WARNING: Contain nudity and Strong Sexual Content\n\nTitle: Natalie (2010)\nCountry: South Korea\nLanguage: Korean\nFilm Genre: Melodrama | Romance\nSubtitles: English(srt/idx,sub), Korean(smi/idx,sub)\nDirector: Joo Kyeong-joong\nCast: Lee Seong-jae, Kim Ji-hoon-I, Yeon-woo Hyeon-jin, Kim Gi-yeon-I\nInfo Link: http://www.hancinema.net/korean_movie_Natalie.php\n\n\nPlot or synopsis\nPeople who have build a wall around themselves. A sculptor Jun-hyeok, an art critic Min-woo, and a modern dance student Mi-ran. A mystery melodrama about the love and secrets of the three people.\n\n\nGeneral\nComplete name : Natalie.2D.2010.DVDRip.x264.AC3-BAUM.mkv\nFormat : Matroska\nFile size : 1.36 GiB\nDuration : 1h 29mn\nOverall bit rate : 2 168 Kbps\nEncoded date : UTC 2011-01-08 20:27:43\nWriting application : mkvmerge v4.0.0 ('The Stars were mine') built on Jun 6 2010 16:18:42\nWriting library : libebml v1.0.0 + libmatroska v1.0.0\n\nVideo #1\nID : 1\nFormat : AVC\nFormat/Info : Advanced Video Codec\nFormat profile : &lt;a class=&quot;__cf_email__&quot; href=&quot;/cdn-cgi/l/email-protection&quot; data-cfemail=&quot;7e361719163e324a504f&quot;&gt;[email&amp;#160;protected]&lt;/a&gt;&lt;script cf-hash='f9e31' type=&quot;text/javascript&quot;&gt;\n/* &lt;![CDATA[ */!function(){try{var t=&quot;currentScript&quot;in document?document.currentScript:function(){for(var t=document.getElementsByTagName(&quot;script&quot;),e=t.length;e--;)if(t[e].getAttribute(&quot;cf-hash&quot;))return t[e]}();if(t&amp;&amp;t.previousSibling){var e,r,n,i,c=t.previousSibling,a=c.getAttribute(&quot;data-cfemail&quot;);if(a){for(e=&quot;&quot;,r=parseInt(a.substr(0,2),16),n=2;a.length-n;n+=2)i=parseInt(a.substr(n,2),16)^r,e+=String.fromCharCode(i);e=document.createTextNode(e),c.parentNode.replaceChild(e,c)}}}catch(u){}}();/* ]]&gt; */&lt;/script&gt;\nFormat settings, CABAC : Yes\nFormat settings, ReFrames : 3 frames\nMuxing mode : Container profile=&lt;a class=&quot;__cf_email__&quot; href=&quot;/cdn-cgi/l/email-protection&quot; data-cfemail=&quot;3d68535653524a537d09130c&quot;&gt;[email&amp;#160;protected]&lt;/a&gt;&lt;script cf-hash='f9e31' type=&quot;text/javascript&quot;&gt;\n/* &lt;![CDATA[ */!function(){try{var t=&quot;currentScript&quot;in document?document.currentScript:function(){for(var t=document.getElementsByTagName(&quot;script&quot;),e=t.length;e--;)if(t[e].getAttribute(&quot;cf-hash&quot;))return t[e]}();if(t&amp;&amp;t.previousSibling){var e,r,n,i,c=t.previousSibling,a=c.getAttribute(&quot;data-cfemail&quot;);if(a){for(e=&quot;&quot;,r=parseInt(a.substr(0,2),16),n=2;a.length-n;n+=2)i=parseInt(a.substr(n,2),16)^r,e+=String.fromCharCode(i);e=document.createTextNode(e),c.parentNode.replaceChild(e,c)}}}catch(u){}}();/* ]]&gt; */&lt;/script&gt;\nCodec ID : V_MPEG4/ISO/AVC\nDuration : 1h 29mn\nBit rate mode : Variable\nBit rate : 1 719 Kbps\nMaximum bit rate : 14.0 Mbps\nWidth : 720 pixels\nHeight : 400 pixels\nDisplay aspect ratio : 16:9\nFrame rate : 23.976 fps\nColor space : YUV\nChroma subsampling : 4:2:0\nBit depth : 8 bits\nScan type : Progressive\nBits/(Pixel*Frame) : 0.249\nStream size : 1.05 GiB (77%)\nWriting library : x264 core 98 r1649 c54c47d\n\nAudio #2\nID : 2\nFormat : AC-3\nFormat/Info : Audio Coding 3\nMode extension : CM (complete main)\nCodec ID : A_AC3\nDuration : 1h 29mn\nBit rate mode : Constant\nBit rate : 448 Kbps\nChannel(s) : 6 channels\nChannel positions : Front: L C R, Side: L R, LFE\nSampling rate : 48.0 KHz\nBit depth : 16 bits\nStream size : 287 MiB (21%)","torrent":{"xt":"urn:btih:dbce56cc18f32aa433145af61cf9a9291f15e954","amp;dn":"Natalie.2D.2010.DVDRip.x264.AC3-BAUM","amp;tr":["udp%3A%2F%2Ftracker.openbittorrent.com%3A80","udp%3A%2F%2Fopen.demonii.com%3A1337","udp%3A%2F%2Ftracker.coppersurfer.tk%3A6969","udp%3A%2F%2Fexodus.desync.com%3A6969"],"infoHash":"dbce56cc18f32aa433145af61cf9a9291f15e954","infoHashBuffer":{"type":"Buffer","data":[219,206,86,204,24,243,42,164,51,20,90,246,28,249,169,41,31,21,233,84]},"announce":[],"urlList":[]}}